<svg version="1" xmlns="http://www.w3.org/2000/svg" width="933.333" height="933.333" viewBox="0 0 700.000000 700.000000"><path d="M342.8 19.2c-6.3 6.8-13.2 14.3-15.4 16.8-2.1 2.4-4.6 5.1-5.4 6.1-4.4 4.8-9.8 10.8-25.5 28.5-5.9 6.6-55.7 63.7-61.4 70.4-3.1 3.6-5.8 6.7-6.1 7-2.3 2.2-23.2 27.2-22.9 27.4.4.3 3.2-.8 14.4-6 3.3-1.5 26.1-9.1 29.7-9.8 1.3-.3 4.1-1 6.3-1.5s5.2-1.2 6.8-1.5c1.5-.2 3.5-.7 4.5-1 .9-.3 3.5-.7 5.7-1.1 2.2-.3 5.4-.8 7-1 1.7-.3 4.3-.7 5.9-1 1.6-.2 6.3-.7 10.5-1.1 4.2-.3 9.2-.8 11.1-1 4.3-.5 43.2-.5 48 0 1.9.2 7.3.7 11.8 1.1 4.6.3 9.1.8 10.1 1 .9.2 4.4.6 7.6 1 3.3.4 6.9.9 8 1.1 28.5 5.3 41.8 8.6 60.5 14.7 14.4 4.8 36.7 13.3 38.8 15 2.7 2.1 1.9-.1-1.6-4.8C461.4 140.2 379.9 36.5 376 33c-.3-.3-2.5-3-5-6s-4.9-6-5.5-6.6c-2.6-2.9-6.2-7.2-8.6-10.1L354.2 7l-11.4 12.2zM415.7 47.3c3.2 4 6.9 8.8 8.3 10.7 1.4 1.8 5.2 6.8 8.5 11s7.1 9.1 8.5 10.9c1.4 1.8 3 3.8 3.5 4.4.6.7 4.2 5.2 8 10.2 26.4 34.3 84.6 106 95.2 117.2l4 4.3 5.4-1.9c4.9-1.7 21-8.4 31.4-13.1 2.2-1 12.1-5.3 22-9.5 26.1-11.1 23.8-9.9 21.8-11.7-2.6-2.2-17-11.7-50.3-33.3-12.5-8.1-24.7-15.8-57-36.1-20.1-12.7-38-23.9-39.8-24.9-1.8-1.1-15.1-9.3-29.5-18.2-14.4-8.9-27.3-16.8-28.7-17.5-1.4-.7-4.3-2.5-6.5-3.9s-5.5-3.4-7.3-4.3c-3.2-1.6-3.1-1.4 2.5 5.7zM264.5 62.1C248.2 71.9 209.1 96 190 108c-2.2 1.4-9.2 5.8-15.7 9.8-6.5 4-16.9 10.5-23.1 14.5-6.1 4-16.5 10.5-23 14.6C105.6 161.3 82 177 82 177.8c0 1.4 7.7 5.8 26.9 15.2 16.6 8.2 32.2 15 34.3 15 1.5 0 21.5-20 35.4-35.5 11.5-12.8 24.9-28 31.9-36 3.3-3.8 8-9.2 10.6-12 2.5-2.7 8.7-9.9 13.9-16 5.1-6 10.6-12.3 12.1-14 1.4-1.6 8.6-10 15.9-18.5 13.3-15.5 16.9-19.7 20.4-23.8 1.1-1.2 1.7-2.2 1.5-2.2-.2 0-9.4 5.4-20.4 12.1zM66.9 204.2c-.1 2.9-.2 6.6-.4 8.3-.1 1.6-.6 8.4-.9 15-.7 11.9-.9 14.6-2.1 40-.3 7.1-.8 16.8-1 21.5-.3 4.7-.7 12.8-1 18-.5 9.9-1.2 24.8-2 43.5-.3 6-.7 16.4-1 23-.8 17.1-1.2 26.6-2 47-.4 9.9-.8 19.9-.9 22.3-.1 2.3.1 3.9.6 3.4.8-.8 14.9-37.6 19.8-51.7 1.5-4.4 7-19.7 12.3-34 8.8-24.1 13.6-37.3 22.4-61.5 13.8-37.7 19.6-57.6 19.2-65.6-.5-8.5-2.8-10-47.7-29.5-14.7-6.4-15.2-6.4-15.3.3zM634 205.4c-23.6 8.8-62 26.2-66.8 30.2l-2.3 1.9 4.5 14c2.4 7.7 7.2 22.1 10.6 32 3.4 9.9 7 20.5 8 23.5s3.7 10.7 6 17c2.3 6.3 4.5 12.6 5 14 6.1 18.8 43.2 117.7 48.4 129 1.8 4.1 2.1-13.4 1.9-118-.2-90.9-.7-130.2-2.2-146.8-.1-1.7-.2-1.7-13.1 3.2zM295 204.5c-41.6 5.2-76 22.3-86.8 42.9-2.3 4.5-2.7 6.3-2.7 14.6 0 43.2 19 90.5 70.2 174.6 17.1 28 40.1 62.3 51.5 76.7l3.8 4.9.1-5.4c0-2.9.2-6 .3-6.8.2-.8.6-4.9 1-8.9.4-4.1.9-7.7 1.1-8 .2-.4.6-2.9.9-5.6.6-5.8 4.5-20 8.3-30 7.5-19.9 20.9-40.1 40.1-59.9 11.7-12.2 19.9-22.1 25.9-31.3 9.5-14.5 17.5-33.9 20.2-48.8.6-3.3 1.3-7 1.5-8.3 1.7-8.7 2.4-26.7 1.2-35.2-1.6-12.7-4.7-21.4-11.2-31.1-4.8-7.2-9-11.3-17.4-16.7-5-3.3-19.3-9.9-23-10.7-.8-.2-5-1.3-9.2-2.5-8.1-2.2-8.6-2.3-15.6-3.5-2.3-.4-5.4-.9-7-1.1-7.1-1.2-43.4-1.1-53.2.1zM149.7 254.7c-2.3 4-31.1 83.3-50.8 139.8-3.9 11-8.8 24.9-10.9 31-6.6 18.7-28.9 85.5-28.4 85.5.2 0-.1 1.1-.6 2.4-.7 2-.6 2.6.8 3 1.6.5 20.6 4.2 26.2 5.2 3.4.6 9.3 1.7 10.5 2 .8.2 9.9 1.8 28 4.9 1.7.3 5.3 1 8 1.5 5.5 1 8.9 1.6 15 2.5 2.2.4 4.7.8 5.5 1 .8.2 3.8.7 6.5 1.1 2.8.3 5.3.8 5.6 1 .3.1 2.8.6 5.5.9 2.7.4 5.7.9 6.6 1.1 1 .3 2.8.7 4 .9 1.3.2 5 .9 8.3 1.4 3.3.6 7.8 1.3 10 1.6 4.9.8 8.2 1.3 11.5 1.9 1.4.3 4.3.8 6.5 1.1 2.2.3 9.2 1.5 15.5 2.6 6.3 1.1 13.1 2.2 15 2.5 1.9.3 6.4 1 10 1.6 3.6.5 7.9 1.2 9.5 1.5 22.2 3.5 27.7 4.3 29.2 4.3 1-.1 3.3-2.3 5.2-5.3 1.9-2.9 5.3-6.8 7.5-8.7l4.2-3.5-9.4-17c-7.2-13.1-37.4-67.2-50.2-90-9.3-16.6-43.6-77.2-53.6-94.7-7.1-12.3-13.4-23.4-14.1-24.8-.8-1.4-2.5-4.3-3.9-6.5-1.3-2.2-2.9-4.9-3.4-6-2.6-5.6-26.8-45.9-27.7-46.2-.6-.2-1.3 0-1.6.4zM547.3 269.1c.4 10.5-1.2 20.3-4.8 29.4-2.8 7-9.6 19.2-12.5 22.3-.9.9-2.6 3.2-3.9 5-6.2 8.8-26.4 29.3-48.1 48.7-18.7 16.7-28.7 26-43.1 40.4-19.7 19.8-24.7 25.3-35.6 39.7-15.3 20.1-27.6 42.5-34.6 62.9-5.5 16.1-5.6 14.9.9 17.9 7.3 3.5 14.7 10.6 19 18.3 3.5 6.1 3.6 6.3 7.2 5.8 2-.2 5.7-.7 8.2-1 12.3-1.4 22.9-2.6 26.5-3 2.2-.3 8.1-1 13-1.5 10.8-1.3 16.1-2 19.5-2.5 1.4-.2 5.4-.7 9-1 3.6-.4 7.3-.9 8.2-1 .9-.2 4.8-.7 8.5-1 3.7-.4 7.5-.8 8.3-1 .8-.3 4.2-.7 7.5-1 3.3-.4 7.2-.8 8.6-1 3.4-.6 9.2-1.4 15.9-2.1 3-.3 5.7-.7 6-.9.3-.2 4.1-.6 8.5-1s8.2-.8 8.5-1c.3-.2 3-.6 6-.9 6.7-.8 20.6-2.6 24-3.1 1.4-.2 4.3-.6 6.5-.9 8.2-1.1 12.1-1.7 14.5-2.1 1.4-.2 4.8-.6 7.5-1 9.5-1.2 36.8-5.4 37.1-5.8.4-.5-26.4-78.7-32.6-95.2-1-2.8-3.5-9.7-5.5-15.5-2-5.8-4.5-12.8-5.5-15.5-14.7-40.2-31.2-84.7-37.2-100.5-5.9-15.5-15-38.4-15.4-38.9-.2-.2-.2 3.4-.1 8zM101.5 548.8c1.3 1.2 26.1 16.2 71 43.1 20.4 12.2 37.7 22.5 38.5 23 2.8 1.8 85.4 50.6 87.2 51.6 1 .5 9.9 5.7 19.8 11.4 10 5.7 18.4 10 18.8 9.7.6-.7.6-42.6-.1-53l-.3-4.9-8-2.6c-12.2-4-18.1-8-25.6-17.3-6.4-7.8-10.3-18.4-10.7-29.3-.1-2-3.9-3-22.6-6-1.6-.3-6.4-1.2-10.5-1.9-4.1-.8-9.3-1.7-11.5-2.1-5.1-.9-7.8-1.4-11.2-2-3.8-.7-42.8-7.3-47.7-8.1-2.1-.3-4.8-.7-5.9-1-1.2-.2-3.9-.6-6.2-.9-4.4-.6-19.6-3-29-4.5-9.5-1.6-19.2-3-24.3-3.6-2.6-.3-6-.8-7.7-1-7.9-1.1-14.9-1.4-14-.6zM584.5 558.2c-3.3.3-9.2.9-13 1.2-3.9.4-7.9.8-9 1-1.8.3-5.4.7-17.5 2.1-1.9.2-6.6.7-10.5 1-3.8.4-7.7.8-8.5 1-1.4.2-6.1.8-17.5 2.1-2.2.2-5.6.6-7.5.9-1.9.2-5.9.7-8.9 1.1-3 .3-6.3.7-7.4 1-1.1.2-5.4.6-9.6 1-4.2.3-7.8.7-8.1.9-.3.2-3.7.6-7.5 1-3.9.3-7.7.8-8.5 1-.8.2-4 .7-7 1-3 .3-6.6.8-8 1-1.4.2-5 .7-8 1-3 .3-6.6.8-8 1-2.9.4-15.4 2.2-22 3-2.5.4-4.8 1-5.1 1.3-.3.4-1.1 3.6-1.7 7.2-2.6 14.4-13.2 28.5-26.5 35l-6.9 3.4.6 22.4c.7 25.7 1.5 40.2 2.2 41.4.3.4 4.4-1.4 9.2-3.9 7.6-4.1 44.4-24.3 57.2-31.5 2.5-1.4 19.4-10.7 37.5-20.8 18.2-10 35.5-19.7 38.5-21.5 3-1.8 8.2-4.7 11.5-6.5 9.1-5 56.8-32 66.8-37.9 4.9-2.8 9-5.1 9.2-5.1.1 0 2.9-1.6 6.1-3.6l5.9-3.5-6 .3c-3.3.2-8.7.6-12 1z"/></svg>