<?xml version="1.0" encoding="UTF-8" standalone="no"?>
<!-- Created with Inkscape (http://www.inkscape.org/) -->

<svg
   xmlns:dc="http://purl.org/dc/elements/1.1/"
   xmlns:cc="http://creativecommons.org/ns#"
   xmlns:rdf="http://www.w3.org/1999/02/22-rdf-syntax-ns#"
   xmlns:svg="http://www.w3.org/2000/svg"
   xmlns="http://www.w3.org/2000/svg"
   xmlns:sodipodi="http://sodipodi.sourceforge.net/DTD/sodipodi-0.dtd"
   xmlns:inkscape="http://www.inkscape.org/namespaces/inkscape"
   width="39.687504mm"
   height="39.687504mm"
   viewBox="0 0 39.687504 39.687504"
   version="1.1"
   id="svg8"
   inkscape:version="0.92.4 (5da689c313, 2019-01-14)"
   sodipodi:docname="favicon.svg">
  <defs
     id="defs2">
    <clipPath
       clipPathUnits="userSpaceOnUse"
       id="clipPath1266">
      <path
         style="fill:none;fill-opacity:1;stroke:#323232;stroke-width:5.00031471;stroke-miterlimit:4;stroke-dasharray:none;stroke-opacity:1"
         d="m 2947.5742,3044.918 c -0.723,0.7157 -1.498,1.4784 -2.6152,2.6504 -2.8532,2.9924 -6.8812,7.3641 -11.7715,12.75 -9.7814,10.7715 -23.0125,25.624 -37.3555,41.8789 -24.7071,28.0007 -50.1463,57.4313 -69.4922,80.1093 63.0142,-32.2304 159.7873,-28.4411 236.1602,7.043 -17.6795,-23.4227 -42.6715,-55.7219 -66.4844,-85.6308 -13.2869,-16.6886 -25.5999,-31.9368 -34.7793,-42.9942 -4.5898,-5.5286 -8.4047,-10.0154 -11.1328,-13.0801 -1.0768,-1.2099 -1.8274,-1.9998 -2.5293,-2.7265 z m 45.4238,26.2793 c 0.4725,0.6326 0.7386,1.0155 1.3047,1.7656 3.035,4.022 7.3845,9.689 12.7129,16.5683 10.6572,13.7586 25.2405,32.3772 41.1739,52.5313 15.9239,20.1419 30.7897,38.4668 41.8789,51.7324 5.5445,6.6328 10.1442,12.0023 13.4453,15.6817 1.6509,1.8397 2.979,3.2654 3.8906,4.1679 0.1739,0.1724 0.2352,0.2165 0.375,0.3477 0.469,-0.1368 1.0146,-0.2976 1.7422,-0.5469 1.7465,-0.5984 4.1341,-1.4918 6.9473,-2.6035 5.6269,-2.2235 12.9704,-5.327 20.6289,-8.7363 15.4144,-6.8622 30.754,-13.4883 34.8828,-15.0235 2.1588,-0.8029 2.4031,-1.1389 2.4629,-0.9882 -0.1537,-0.2369 -0.2525,-0.4132 -0.4942,-0.7344 -0.01,0.014 -0.227,-0.212 -0.4902,-0.4317 -0.395,-0.3125 -0.986,-0.7588 -1.7324,-1.2949 -1.4914,-1.0721 -3.6052,-2.5324 -6.2403,-4.3066 -5.2709,-3.5485 -12.623,-8.3607 -21.3359,-13.9922 -17.4255,-11.2629 -40.3378,-25.8057 -63.25,-40.1953 -22.9123,-14.3896 -45.8241,-28.6225 -63.2598,-39.2539 -8.7178,-5.3158 -16.0667,-9.7314 -21.3418,-12.8067 -1.3958,-0.8135 -2.2119,-1.2649 -3.3008,-1.8808 z m 180.9512,114.1621 c 0,-0.01 -0.022,-0.043 -0.1152,-0.1582 0.057,0.071 0.072,0.1001 0.1152,0.1582 z m -281.584,-106.3301 c -4.5237,2.641 -9.9153,5.8297 -16.8867,10.0527 -15.9946,9.689 -37.2888,22.8286 -58.7754,36.2364 -21.4862,13.4079 -43.1664,27.0856 -59.9414,37.8457 -8.3876,5.38 -15.5487,10.0306 -20.834,13.5468 -2.6426,1.7581 -4.8223,3.234 -6.4316,4.3633 -1.5462,1.085 -2.5659,1.8873 -2.7637,2.0586 0.056,0.019 -0.039,-9e-4 0.9102,0.7227 2.6636,2.0293 9.1495,5.527 20.5156,11.1699 7.2247,3.587 14.3103,6.8724 19.8496,9.2617 2.77,1.1946 5.1558,2.1713 6.9492,2.832 1.426,0.5249 2.0757,0.6492 2.293,0.7344 0.1625,-0.1198 0.2462,-0.1764 0.4707,-0.3594 0.9078,-0.7361 2.2436,-1.9335 3.8828,-3.5078 3.2788,-3.1487 7.8142,-7.7981 13.2481,-13.584 10.8676,-11.572 25.3547,-27.7035 40.9668,-45.7246 33.233,-38.3604 49.0199,-56.5439 56.5468,-65.6484 z m -176.7949,120.7187 c -0.4597,4.8203 -1.3361,19.1863 -2.3887,39.0567 -1.0867,20.5161 -2.3426,46.197 -3.5156,71.3828 -1.1728,25.1859 -2.2666,49.8801 -3,68.4492 -0.3662,9.2846 -0.6409,17.0444 -0.7988,22.5469 -0.01,0.3924 -0.01,0.5526 -0.018,0.9219 0.504,-1.108 0.4659,-0.7685 1.0547,-2.2012 5.0677,-12.3362 14.2732,-37.5798 31.5527,-85.3066 18.6655,-51.5557 27.7783,-74.8713 27.793,-85.3555 0,-5.2421 -1.3578,-7.0838 -5.4805,-9.7129 -4.1225,-2.6291 -11.1298,-5.244 -20.5449,-9.6738 -8.0101,-3.7688 -13.8783,-6.4295 -18.0605,-8.1055 -3.7012,-1.4833 -5.6435,-1.8778 -6.5938,-2.002 z m 469.4785,2.0567 c -0.4966,0.1247 -0.9048,0.2087 -1.539,0.3965 -2.1816,0.6462 -5.0907,1.6451 -8.4356,2.8847 -6.6894,2.4792 -15.1529,5.9291 -23.5234,9.5528 -8.3713,3.6236 -16.6631,7.4283 -23.0176,10.6074 -3.1774,1.5894 -5.8692,3.0282 -7.8047,4.1758 -0.9086,0.5388 -1.6083,1.0046 -2.123,1.373 0,0.034 0,0.027 0,0.064 0.2305,1.0488 0.6469,2.6594 1.2324,4.6914 1.1713,4.0639 3.0009,9.8505 5.3125,16.8867 4.6227,14.0726 11.1973,33.1525 18.5039,53.7715 14.5206,40.9772 31.8638,87.8529 42.5273,113.8926 0.079,-1.3837 0.1627,-2.5006 0.2383,-4.3731 0.2344,-6.3058 0.418,-15.2102 0.5469,-25.8281 0.2608,-21.2359 0.3142,-49.3363 0.1894,-77.4375 -0.1247,-28.1013 -0.4236,-56.2135 -0.873,-77.4766 -0.2268,-10.6315 -0.4887,-19.5483 -0.7812,-25.875 -0.1437,-3.123 -0.2993,-5.5956 -0.4532,-7.3066 z m -265.1093,1.5098 c -3.6189,0.029 -7.2361,0.1683 -10.8301,0.4179 -25.5579,1.7724 -49.944,9.0926 -65.459,20.4531 -7.7571,5.6804 -13.7846,12.1309 -15.9004,19.6504 -2.7912,9.9204 2.8487,37.5395 5.9453,47.875 4.3253,14.296 13.3887,36.8126 32.7168,70.7911 19.3648,34.0422 36.3,59.9592 48.3574,77.1015 6.0288,8.571 10.8456,14.9449 14.1153,19.0274 0.045,0.052 0.048,0.063 0.09,0.1152 1.07,-54.8252 23.0952,-81.6952 44.8887,-104.0195 22.8767,-23.4341 36.7274,-49.0369 37.3808,-89.0411 -0.9312,-23.1556 -9.4286,-40.1079 -29.6445,-50.0488 -16.4249,-8.0769 -37.1413,-12.0564 -58.041,-12.3144 v 0 c -1.2052,-0.015 -2.4115,-0.017 -3.6171,-0.01 z m -137.125,40.6523 c -0.076,0.1682 -0.1122,0.238 -0.1954,0.4238 -0.7487,1.7164 -1.7574,4.1884 -2.9707,7.2754 -2.4264,6.1739 -5.6787,14.8242 -9.4589,25.0957 -7.561,20.5431 -17.2319,47.5955 -26.7129,74.5899 -9.4811,26.9947 -18.7726,53.9302 -25.5567,74.2304 -3.392,10.1503 -6.155,18.6498 -8,24.6368 -0.8915,2.8928 -1.546,5.1339 -1.9648,6.7207 1.4402,0.3556 3.4107,0.8011 5.998,1.3437 5.4431,1.1415 13.2221,2.6474 22.7246,4.4121 19.0048,3.5294 44.9361,8.0883 73.1797,12.8067 48.0125,8.0209 75.6086,12.5756 92.5,14.996 2.976,-5.7882 7.2733,-10.673 12.5801,-14.4316 -14.8796,-27.2654 -44.9442,-80.9409 -72.8848,-130.2812 -14.2106,-25.0954 -27.7444,-48.8576 -38.1933,-67.002 -5.2245,-9.0721 -9.6839,-16.7364 -13.0606,-22.4629 -3.3766,-5.7265 -5.7832,-9.6522 -6.5058,-10.6797 -0.5057,-0.7193 -1.0061,-1.2077 -1.4785,-1.6738 z m 320.3789,4.3906 c 3.8725,17.9455 -1.4712,34.3225 -12.2969,49.6074 -11.4524,16.1692 -28.5979,31.5747 -47.0606,48.1973 -36.3552,32.7327 -77.5658,70.082 -91.3535,124.4961 14.2394,5.1814 19.3811,14.2906 22.3692,21.8789 26.0322,-2.7318 76.9772,-8.951 122.6914,-14.8652 23.2388,-3.0065 44.9361,-5.9099 60.9277,-8.1719 7.996,-1.1309 14.5661,-2.0949 19.1699,-2.8379 1.9178,-0.3095 3.2712,-0.5602 4.4492,-0.7812 -0.424,-1.6013 -1.0593,-3.7913 -1.957,-6.6641 -1.8962,-6.0706 -4.7614,-14.6836 -8.2832,-24.9746 -7.045,-20.5822 -16.7245,-47.9031 -26.6465,-75.3223 -9.9224,-27.419 -20.0857,-54.9478 -28.0937,-75.9609 -4.0037,-10.5065 -7.4722,-19.3818 -10.0899,-25.7832 -1.3088,-3.2006 -2.4126,-5.7866 -3.2441,-7.6133 -0.2343,-0.5176 -0.3931,-0.8171 -0.582,-1.2051 z m -361.8516,234.1289 c 8.8777,5.5895 18.1086,11.1838 25.3672,15.5899 18.2011,11.0456 42.9526,25.915 69.8515,41.9258 26.8978,16.0099 51.6664,30.5956 69.8965,41.1914 9.1151,5.2978 16.5959,9.5955 21.8789,12.5722 2.2844,1.2872 3.9467,2.2017 5.3516,2.961 0.038,-0.3122 0.079,-0.3987 0.1133,-0.7539 0.291,-3.0014 0.4546,-7.471 0.498,-12.7481 0.079,-9.9078 -0.3318,-22.7564 -0.9668,-34.7246 -20.3618,-2.4912 -36.0851,-19.587 -35.7226,-40.4277 v -0.025 -0.02 c 0,-0.1266 0.039,-0.2575 0.039,-0.3847 -25.3322,-4.7543 -60.5626,-10.8773 -91.8144,-15.9473 -16.0978,-2.6116 -31.0095,-4.9335 -42.6875,-6.6094 z m 407.8672,7.4395 c -2.2246,0 -11.0413,0.7201 -23.5156,2.0195 -12.7832,1.3317 -29.3877,3.202 -47.2754,5.3027 -34.8182,4.089 -73.8873,8.9949 -99.8711,12.5528 -0.4214,17.0909 -11.6908,31.7014 -27.7383,37.082 0.042,3.8811 0.094,7.8314 0.207,11.9981 0.3288,12.5113 0.7579,23.8851 1.1778,32.1093 0.1889,3.7213 0.38,6.5518 0.5546,8.7715 1.4487,-0.7492 3.0012,-1.5545 5.2266,-2.7441 5.6205,-3.0046 13.5342,-7.3072 22.9785,-12.4942 18.8886,-10.3739 43.8892,-24.2573 68.9297,-38.2519 25.0401,-13.9946 50.1257,-28.1095 69.1836,-38.9434 9.529,-5.4168 17.5572,-10.0116 23.3066,-13.3613 2.8748,-1.6748 5.1812,-3.0371 6.8086,-4.0254 z"
         id="path1268"
         inkscape:connector-curvature="0" />
    </clipPath>
  </defs>
  <sodipodi:namedview
     id="base"
     pagecolor="#ffffff"
     bordercolor="#666666"
     borderopacity="1.0"
     inkscape:pageopacity="0.0"
     inkscape:pageshadow="2"
     inkscape:zoom="2.8"
     inkscape:cx="103.11456"
     inkscape:cy="78.628846"
     inkscape:document-units="mm"
     inkscape:current-layer="layer1"
     showgrid="false"
     inkscape:window-width="1920"
     inkscape:window-height="1017"
     inkscape:window-x="-8"
     inkscape:window-y="-8"
     inkscape:window-maximized="1"
     inkscape:snap-global="false"
     showguides="false" />
  <metadata
     id="metadata5">
    <rdf:RDF>
      <cc:Work
         rdf:about="">
        <dc:format>image/svg+xml</dc:format>
        <dc:type
           rdf:resource="http://purl.org/dc/dcmitype/StillImage" />
        <dc:title></dc:title>
      </cc:Work>
    </rdf:RDF>
  </metadata>
  <g
     inkscape:label="Layer 1"
     inkscape:groupmode="layer"
     id="layer1"
     transform="translate(-84.188805,-120.84944)">
    <rect
       inkscape:export-ydpi="96"
       inkscape:export-xdpi="96"
       inkscape:export-filename="D:\Projects\andres-ml\poll20\img\logo-2.png"
       style="fill:#f2f2f2;fill-opacity:0;stroke:none;stroke-width:0.28765044;stroke-linejoin:round;stroke-miterlimit:4;stroke-dasharray:none;stroke-opacity:1"
       id="rect1553"
       width="39.687504"
       height="39.687504"
       x="84.188805"
       y="120.84944" />
    <path
       inkscape:export-ydpi="96"
       inkscape:export-xdpi="96"
       inkscape:export-filename="D:\Projects\andres-ml\poll20\img\logo-2.png"
       inkscape:connector-curvature="0"
       id="path1555"
       d="m 104.25532,121.26166 c -0.0506,0.0501 -0.10482,0.1036 -0.18303,0.18564 -0.19973,0.20949 -0.48172,0.51549 -0.82409,0.89253 -0.68473,0.75405 -1.61099,1.79375 -2.61505,2.93166 -1.729607,1.96017 -3.510447,4.02044 -4.864737,5.608 4.411277,-2.25627 11.185717,-1.99102 16.532157,0.49302 -1.23765,-1.63969 -2.98718,-3.90069 -4.65418,-5.99445 -0.93015,-1.16827 -1.79202,-2.23578 -2.43463,-3.00985 -0.32131,-0.38703 -0.58836,-0.70114 -0.77932,-0.91568 -0.0754,-0.0847 -0.12798,-0.13999 -0.17712,-0.19087 z"
       style="fill:#e6a4d4;fill-opacity:1;stroke:none;stroke-width:0.35002172;stroke-miterlimit:4;stroke-dasharray:none;stroke-opacity:1" />
    <path
       inkscape:export-ydpi="96"
       inkscape:export-xdpi="96"
       inkscape:export-filename="D:\Projects\andres-ml\poll20\img\logo-2.png"
       inkscape:connector-curvature="0"
       id="path1557"
       d="m 107.43514,123.10139 c 0.0331,0.0443 0.0518,0.0711 0.0914,0.12364 0.21247,0.28156 0.51688,0.67827 0.8899,1.15985 0.74606,0.96315 1.76696,2.2665 2.88238,3.67737 1.11473,1.41002 2.15536,2.69281 2.93165,3.62146 0.38816,0.46433 0.71019,0.84028 0.94129,1.09786 0.11555,0.12878 0.20856,0.22852 0.27238,0.2917 0.0122,0.0121 0.0164,0.0152 0.0262,0.0243 0.0328,-0.01 0.071,-0.0208 0.12192,-0.0383 0.12227,-0.0419 0.28946,-0.10434 0.48639,-0.18217 0.39391,-0.15565 0.90794,-0.37295 1.44407,-0.61162 1.07907,-0.48038 2.15291,-0.94423 2.44194,-1.0517 0.15113,-0.0562 0.16823,-0.0797 0.17241,-0.0691 -0.0127,-0.0196 -0.0167,-0.0299 -0.0427,-0.0625 0.022,0.0273 0,0.003 -0.0262,-0.0191 -0.0276,-0.0219 -0.069,-0.0532 -0.12124,-0.0907 -0.1044,-0.0751 -0.25244,-0.17725 -0.4369,-0.30146 -0.36899,-0.24841 -0.88361,-0.58519 -1.49355,-0.97942 -1.21986,-0.78845 -2.82383,-1.80659 -4.42778,-2.81393 -1.60394,-1.00733 -3.20789,-2.00369 -4.42848,-2.74793 -0.61029,-0.37212 -1.12473,-0.68125 -1.49403,-0.89653 -0.0977,-0.057 -0.15487,-0.0885 -0.23111,-0.13165 z"
       style="fill:#e2dea0;fill-opacity:1;stroke:none;stroke-width:0.35002172;stroke-miterlimit:4;stroke-dasharray:none;stroke-opacity:1" />
    <path
       inkscape:export-ydpi="96"
       inkscape:export-xdpi="96"
       inkscape:export-filename="D:\Projects\andres-ml\poll20\img\logo-2.png"
       inkscape:connector-curvature="0"
       id="path1559"
       d="m 100.39039,123.64961 c -0.31668,0.18488 -0.694122,0.40812 -1.182147,0.70375 -1.1197,0.67827 -2.61035,1.59807 -4.11449,2.53668 -1.50414,0.93861 -3.02184,1.89611 -4.19616,2.64936 -0.58717,0.37662 -1.08853,0.70227 -1.45852,0.94842 -0.18499,0.12308 -0.33752,0.2264 -0.45018,0.30547 -0.10824,0.076 -0.17963,0.13202 -0.19348,0.14402 0.004,0.001 -0.003,2e-5 0.0637,0.0507 0.18646,0.14205 0.64055,0.3869 1.43623,0.78193 0.50576,0.2511 1.00175,0.4811 1.38954,0.64837 0.1939,0.0836 0.36084,0.15193 0.4864,0.19819 0.0998,0.0367 0.14537,0.0454 0.16057,0.0514 0.0115,-0.008 0.0172,-0.0122 0.0329,-0.025 0.0635,-0.0515 0.1571,-0.13535 0.27185,-0.24556 0.22952,-0.22043 0.54696,-0.54599 0.92736,-0.95103 0.76078,-0.8101 1.77499,-1.93935 2.86791,-3.20091 2.32644,-2.68539 3.431525,-3.95831 3.958457,-4.59567 z"
       style="fill:#98d78d;fill-opacity:1;stroke:none;stroke-width:0.35002172;stroke-miterlimit:4;stroke-dasharray:none;stroke-opacity:1" />
    <path
       inkscape:export-ydpi="96"
       inkscape:export-xdpi="96"
       inkscape:export-filename="D:\Projects\andres-ml\poll20\img\logo-2.png"
       inkscape:connector-curvature="0"
       id="path1561"
       d="m 88.013993,132.10047 c -0.0322,0.33743 -0.0935,1.34315 -0.16718,2.73416 -0.0761,1.43621 -0.16397,3.23397 -0.24608,4.99709 -0.0821,1.76312 -0.15868,3.49185 -0.21002,4.79176 -0.0256,0.64996 -0.0449,1.19313 -0.0559,1.57833 -5.3e-4,0.0275 -5.3e-4,0.0388 -10e-4,0.0646 0.0353,-0.0776 0.0326,-0.0538 0.0738,-0.15412 0.35476,-0.86359 0.99929,-2.63073 2.20894,-5.97181 1.30666,-3.60912 1.94459,-5.24136 1.94561,-5.9753 2.6e-4,-0.36696 -0.0951,-0.49583 -0.38366,-0.67988 -0.2886,-0.18405 -0.77921,-0.36716 -1.43831,-0.67727 -0.56074,-0.26383 -0.97156,-0.45006 -1.26434,-0.56739 -0.25909,-0.10383 -0.39497,-0.13149 -0.4615,-0.14018 z"
       style="fill:#e98c8c;fill-opacity:1;stroke:none;stroke-width:0.35002172;stroke-miterlimit:4;stroke-dasharray:none;stroke-opacity:1" />
    <path
       inkscape:export-ydpi="96"
       inkscape:export-xdpi="96"
       inkscape:export-filename="D:\Projects\andres-ml\poll20\img\logo-2.png"
       inkscape:connector-curvature="0"
       id="path1563"
       d="m 120.8796,132.24449 c -0.0348,0.009 -0.0634,0.0146 -0.10782,0.0277 -0.15272,0.0452 -0.35637,0.11524 -0.59052,0.20202 -0.46829,0.17356 -1.06077,0.41507 -1.64675,0.66875 -0.58602,0.25366 -1.16644,0.52003 -1.61128,0.74258 -0.22244,0.11126 -0.41082,0.21188 -0.54631,0.29221 -0.0636,0.0377 -0.11269,0.0704 -0.14873,0.0961 0,0.002 2.2e-4,0.002 0,0.005 0.0161,0.0734 0.0454,0.18621 0.0864,0.32845 0.082,0.28449 0.21,0.68957 0.37182,1.18213 0.32361,0.98515 0.78385,2.32086 1.29535,3.76428 1.0165,2.86859 2.23059,6.15009 2.97709,7.97298 0.006,-0.0969 0.0114,-0.17508 0.0167,-0.30615 0.0164,-0.44144 0.0293,-1.06474 0.0383,-1.80804 0.0183,-1.48661 0.022,-3.45376 0.0132,-5.42097 -0.009,-1.96721 -0.0297,-3.93525 -0.0611,-5.42376 -0.0159,-0.74425 -0.0342,-1.36845 -0.0547,-1.81135 -0.01,-0.21862 -0.0209,-0.3917 -0.0317,-0.51147 z"
       style="fill:#98d78d;fill-opacity:1;stroke:none;stroke-width:0.35002172;stroke-miterlimit:4;stroke-dasharray:none;stroke-opacity:1" />
    <path
       inkscape:export-ydpi="96"
       inkscape:export-xdpi="96"
       inkscape:export-filename="D:\Projects\andres-ml\poll20\img\logo-2.png"
       sodipodi:nodetypes="cccscccccscccc"
       inkscape:connector-curvature="0"
       id="path1565"
       d="m 102.57407,132.35072 c -0.33765,-0.004 -0.676,0.005 -1.01147,0.0288 -1.789162,0.12407 -3.496337,0.6364 -4.582437,1.43168 -0.54305,0.39766 -0.9649,0.84922 -1.113,1.37562 -0.1954,0.69447 0.19931,2.62798 0.41607,3.35151 0.30279,1.00078 0.93738,2.57701 2.29043,4.95565 1.355615,2.3831 2.541087,4.19743 3.385157,5.39746 0.42204,0.60001 0.75925,1.04628 0.98813,1.33207 0.003,0.004 0.003,0.004 0.006,0.008 0.0749,-3.838 1.61675,-5.71897 3.14239,-7.28177 1.60147,-1.64049 2.57107,-3.43288 2.61681,-6.23334 -0.0652,-1.621 -0.66,-2.8077 -2.07521,-3.50361 -1.14985,-0.56543 -2.60016,-0.844 -4.06329,-0.86205 z"
       style="fill:#ffa271;fill-opacity:1;stroke:none;stroke-width:0.35002172;stroke-miterlimit:4;stroke-dasharray:none;stroke-opacity:1" />
    <path
       inkscape:export-ydpi="96"
       inkscape:export-xdpi="96"
       inkscape:export-filename="D:\Projects\andres-ml\poll20\img\logo-2.png"
       inkscape:connector-curvature="0"
       id="path1567"
       d="m 92.721473,135.19599 c -0.005,0.0118 -0.008,0.0166 -0.0138,0.0296 -0.0524,0.12016 -0.12301,0.2933 -0.20794,0.5094 -0.16986,0.4322 -0.39747,1.03778 -0.66212,1.75683 -0.5293,1.4381 -1.20632,3.33184 -1.87003,5.22156 -0.66372,1.88975 -1.31414,3.77538 -1.78906,5.19649 -0.23745,0.71056 -0.43091,1.30551 -0.56006,1.72462 -0.0624,0.20251 -0.10826,0.35948 -0.13758,0.47056 0.10082,0.0249 0.23875,0.0561 0.41987,0.094 0.38104,0.0799 0.92566,0.18523 1.59088,0.30877 1.33041,0.24707 3.14564,0.56622 5.12282,0.89652 3.36107,0.5615 5.292975,0.88035 6.475457,1.04979 0.20833,-0.4052 0.50916,-0.74713 0.88068,-1.01025 -1.04165,-1.9087 -3.146327,-5.66624 -5.102287,-9.12028 -0.99481,-1.75678 -1.94226,-3.42023 -2.67373,-4.69042 -0.36574,-0.63508 -0.67791,-1.17152 -0.91429,-1.5724 -0.23639,-0.40088 -0.40481,-0.6757 -0.45541,-0.74763 -0.0354,-0.0504 -0.0704,-0.0846 -0.10345,-0.11721 z"
       style="fill:#80afe1;fill-opacity:1;stroke:none;stroke-width:0.35002172;stroke-miterlimit:4;stroke-dasharray:none;stroke-opacity:1" />
    <path
       inkscape:export-ydpi="96"
       inkscape:export-xdpi="96"
       inkscape:export-filename="D:\Projects\andres-ml\poll20\img\logo-2.png"
       inkscape:connector-curvature="0"
       id="path1569"
       d="m 115.14933,135.50337 c 0.27109,1.25626 -0.10296,2.40273 -0.86083,3.47275 -0.8017,1.13191 -2.00197,2.21034 -3.29441,3.37399 -2.54505,2.29143 -5.42997,4.90599 -6.39516,8.71522 0.99679,0.36272 1.35676,1.00043 1.56596,1.53165 1.82237,-0.19124 5.38876,-0.62653 8.58894,-1.04055 1.62682,-0.21047 3.14566,-0.41374 4.26514,-0.57208 0.55975,-0.0792 1.0197,-0.1467 1.34199,-0.19871 0.13425,-0.0217 0.22894,-0.0392 0.31141,-0.0547 -0.0297,-0.11209 -0.074,-0.26543 -0.13689,-0.46654 -0.13274,-0.42497 -0.33338,-1.02788 -0.57991,-1.7483 -0.49319,-1.44085 -1.17076,-3.35349 -1.86534,-5.27295 -0.69461,-1.91945 -1.40611,-3.84651 -1.9667,-5.31752 -0.28028,-0.7355 -0.52311,-1.35678 -0.70636,-1.80491 -0.0916,-0.22405 -0.16887,-0.4052 -0.22709,-0.53307 -0.0165,-0.0362 -0.0275,-0.0571 -0.0408,-0.0843 z"
       style="fill:#e98c8c;fill-opacity:1;stroke:none;stroke-width:0.35002172;stroke-miterlimit:4;stroke-dasharray:none;stroke-opacity:1" />
    <path
       sodipodi:nodetypes="cccccccccccccccc"
       inkscape:export-ydpi="96"
       inkscape:export-xdpi="96"
       inkscape:export-filename="D:\Projects\andres-ml\poll20\img\logo-2.png"
       inkscape:connector-curvature="0"
       id="path1571"
       d="m 89.818203,151.89341 c 0.62148,0.39128 1.26769,0.78297 1.77582,1.09141 1.27415,0.77324 3.00676,1.81414 4.8898,2.93497 1.88295,1.12076 3.616927,2.14183 4.893127,2.88358 0.63811,0.37088 1.16184,0.67161 1.53166,0.87999 0.15993,0.0901 0.27627,0.15426 0.3746,0.20741 0.003,-0.0219 0.005,-0.0279 0.008,-0.0528 0.0203,-0.21011 0.0318,-0.52309 0.0348,-0.89252 0.006,-0.69359 -0.0233,-1.59298 -0.0677,-2.4308 -1.42539,-0.1744 -2.52601,-1.37119 -2.50064,-2.83013 v -0.002 -0.001 c 2.7e-4,-0.009 0.002,-0.0181 0.002,-0.027 -1.773397,-0.33282 -4.239657,-0.76139 -6.427407,-1.11631 -1.12691,-0.18282 -2.17074,-0.3454 -2.98825,-0.46272 z"
       style="fill:#e6a4d4;fill-opacity:1;stroke:none;stroke-width:0.35002172;stroke-miterlimit:4;stroke-dasharray:none;stroke-opacity:1" />
    <path
       inkscape:export-ydpi="96"
       inkscape:export-xdpi="96"
       inkscape:export-filename="D:\Projects\andres-ml\poll20\img\logo-2.png"
       inkscape:connector-curvature="0"
       id="path1573"
       d="m 118.37061,152.41413 c -0.15574,2.3e-4 -0.77298,0.0504 -1.64624,0.14141 -0.89488,0.0932 -2.05719,0.22423 -3.30941,0.37129 -2.43741,0.28625 -5.17247,0.62969 -6.99145,0.87876 -0.0295,1.19643 -0.81837,2.21922 -1.94179,2.59589 0.003,0.2717 0.007,0.54824 0.0145,0.83993 0.0231,0.87585 0.053,1.67204 0.0824,2.24777 0.0133,0.26051 0.0266,0.45866 0.0388,0.61405 0.10142,-0.0524 0.21011,-0.10881 0.36589,-0.19209 0.39346,-0.21033 0.94749,-0.51164 1.60863,-0.87475 1.32229,-0.72623 3.07245,-1.69806 4.82538,-2.67775 1.75293,-0.97968 3.50899,-1.96774 4.84312,-2.72616 0.66707,-0.3792 1.22912,-0.70086 1.63161,-0.93536 0.20124,-0.11724 0.36271,-0.2126 0.47664,-0.28178 z"
       style="fill:#e2dea0;fill-opacity:1;stroke:none;stroke-width:0.35002172;stroke-miterlimit:4;stroke-dasharray:none;stroke-opacity:1" />
  </g>
</svg>
