<?xml version="1.0" encoding="UTF-8" standalone="no"?>
<!-- Created with Inkscape (http://www.inkscape.org/) -->

<svg
   xmlns:dc="http://purl.org/dc/elements/1.1/"
   xmlns:cc="http://creativecommons.org/ns#"
   xmlns:rdf="http://www.w3.org/1999/02/22-rdf-syntax-ns#"
   xmlns:svg="http://www.w3.org/2000/svg"
   xmlns="http://www.w3.org/2000/svg"
   xmlns:sodipodi="http://sodipodi.sourceforge.net/DTD/sodipodi-0.dtd"
   xmlns:inkscape="http://www.inkscape.org/namespaces/inkscape"
   width="150mm"
   height="150mm"
   viewBox="0 0 150 150"
   version="1.1"
   id="svg8"
   inkscape:version="0.92.3 (2405546, 2018-03-11)"
   sodipodi:docname="logo.svg">
  <defs
     id="defs2">
    <clipPath
       clipPathUnits="userSpaceOnUse"
       id="clipPath1266">
      <path
         style="fill:none;fill-opacity:1;stroke:#323232;stroke-width:5.00031471;stroke-miterlimit:4;stroke-dasharray:none;stroke-opacity:1"
         d="m 2947.5742,3044.918 c -0.723,0.7157 -1.498,1.4784 -2.6152,2.6504 -2.8532,2.9924 -6.8812,7.3641 -11.7715,12.75 -9.7814,10.7715 -23.0125,25.624 -37.3555,41.8789 -24.7071,28.0007 -50.1463,57.4313 -69.4922,80.1093 63.0142,-32.2304 159.7873,-28.4411 236.1602,7.043 -17.6795,-23.4227 -42.6715,-55.7219 -66.4844,-85.6308 -13.2869,-16.6886 -25.5999,-31.9368 -34.7793,-42.9942 -4.5898,-5.5286 -8.4047,-10.0154 -11.1328,-13.0801 -1.0768,-1.2099 -1.8274,-1.9998 -2.5293,-2.7265 z m 45.4238,26.2793 c 0.4725,0.6326 0.7386,1.0155 1.3047,1.7656 3.035,4.022 7.3845,9.689 12.7129,16.5683 10.6572,13.7586 25.2405,32.3772 41.1739,52.5313 15.9239,20.1419 30.7897,38.4668 41.8789,51.7324 5.5445,6.6328 10.1442,12.0023 13.4453,15.6817 1.6509,1.8397 2.979,3.2654 3.8906,4.1679 0.1739,0.1724 0.2352,0.2165 0.375,0.3477 0.469,-0.1368 1.0146,-0.2976 1.7422,-0.5469 1.7465,-0.5984 4.1341,-1.4918 6.9473,-2.6035 5.6269,-2.2235 12.9704,-5.327 20.6289,-8.7363 15.4144,-6.8622 30.754,-13.4883 34.8828,-15.0235 2.1588,-0.8029 2.4031,-1.1389 2.4629,-0.9882 -0.1537,-0.2369 -0.2525,-0.4132 -0.4942,-0.7344 -0.01,0.014 -0.227,-0.212 -0.4902,-0.4317 -0.395,-0.3125 -0.986,-0.7588 -1.7324,-1.2949 -1.4914,-1.0721 -3.6052,-2.5324 -6.2403,-4.3066 -5.2709,-3.5485 -12.623,-8.3607 -21.3359,-13.9922 -17.4255,-11.2629 -40.3378,-25.8057 -63.25,-40.1953 -22.9123,-14.3896 -45.8241,-28.6225 -63.2598,-39.2539 -8.7178,-5.3158 -16.0667,-9.7314 -21.3418,-12.8067 -1.3958,-0.8135 -2.2119,-1.2649 -3.3008,-1.8808 z m 180.9512,114.1621 c 0,-0.01 -0.022,-0.043 -0.1152,-0.1582 0.057,0.071 0.072,0.1001 0.1152,0.1582 z m -281.584,-106.3301 c -4.5237,2.641 -9.9153,5.8297 -16.8867,10.0527 -15.9946,9.689 -37.2888,22.8286 -58.7754,36.2364 -21.4862,13.4079 -43.1664,27.0856 -59.9414,37.8457 -8.3876,5.38 -15.5487,10.0306 -20.834,13.5468 -2.6426,1.7581 -4.8223,3.234 -6.4316,4.3633 -1.5462,1.085 -2.5659,1.8873 -2.7637,2.0586 0.056,0.019 -0.039,-9e-4 0.9102,0.7227 2.6636,2.0293 9.1495,5.527 20.5156,11.1699 7.2247,3.587 14.3103,6.8724 19.8496,9.2617 2.77,1.1946 5.1558,2.1713 6.9492,2.832 1.426,0.5249 2.0757,0.6492 2.293,0.7344 0.1625,-0.1198 0.2462,-0.1764 0.4707,-0.3594 0.9078,-0.7361 2.2436,-1.9335 3.8828,-3.5078 3.2788,-3.1487 7.8142,-7.7981 13.2481,-13.584 10.8676,-11.572 25.3547,-27.7035 40.9668,-45.7246 33.233,-38.3604 49.0199,-56.5439 56.5468,-65.6484 z m -176.7949,120.7187 c -0.4597,4.8203 -1.3361,19.1863 -2.3887,39.0567 -1.0867,20.5161 -2.3426,46.197 -3.5156,71.3828 -1.1728,25.1859 -2.2666,49.8801 -3,68.4492 -0.3662,9.2846 -0.6409,17.0444 -0.7988,22.5469 -0.01,0.3924 -0.01,0.5526 -0.018,0.9219 0.504,-1.108 0.4659,-0.7685 1.0547,-2.2012 5.0677,-12.3362 14.2732,-37.5798 31.5527,-85.3066 18.6655,-51.5557 27.7783,-74.8713 27.793,-85.3555 0,-5.2421 -1.3578,-7.0838 -5.4805,-9.7129 -4.1225,-2.6291 -11.1298,-5.244 -20.5449,-9.6738 -8.0101,-3.7688 -13.8783,-6.4295 -18.0605,-8.1055 -3.7012,-1.4833 -5.6435,-1.8778 -6.5938,-2.002 z m 469.4785,2.0567 c -0.4966,0.1247 -0.9048,0.2087 -1.539,0.3965 -2.1816,0.6462 -5.0907,1.6451 -8.4356,2.8847 -6.6894,2.4792 -15.1529,5.9291 -23.5234,9.5528 -8.3713,3.6236 -16.6631,7.4283 -23.0176,10.6074 -3.1774,1.5894 -5.8692,3.0282 -7.8047,4.1758 -0.9086,0.5388 -1.6083,1.0046 -2.123,1.373 0,0.034 0,0.027 0,0.064 0.2305,1.0488 0.6469,2.6594 1.2324,4.6914 1.1713,4.0639 3.0009,9.8505 5.3125,16.8867 4.6227,14.0726 11.1973,33.1525 18.5039,53.7715 14.5206,40.9772 31.8638,87.8529 42.5273,113.8926 0.079,-1.3837 0.1627,-2.5006 0.2383,-4.3731 0.2344,-6.3058 0.418,-15.2102 0.5469,-25.8281 0.2608,-21.2359 0.3142,-49.3363 0.1894,-77.4375 -0.1247,-28.1013 -0.4236,-56.2135 -0.873,-77.4766 -0.2268,-10.6315 -0.4887,-19.5483 -0.7812,-25.875 -0.1437,-3.123 -0.2993,-5.5956 -0.4532,-7.3066 z m -265.1093,1.5098 c -3.6189,0.029 -7.2361,0.1683 -10.8301,0.4179 -25.5579,1.7724 -49.944,9.0926 -65.459,20.4531 -7.7571,5.6804 -13.7846,12.1309 -15.9004,19.6504 -2.7912,9.9204 2.8487,37.5395 5.9453,47.875 4.3253,14.296 13.3887,36.8126 32.7168,70.7911 19.3648,34.0422 36.3,59.9592 48.3574,77.1015 6.0288,8.571 10.8456,14.9449 14.1153,19.0274 0.045,0.052 0.048,0.063 0.09,0.1152 1.07,-54.8252 23.0952,-81.6952 44.8887,-104.0195 22.8767,-23.4341 36.7274,-49.0369 37.3808,-89.0411 -0.9312,-23.1556 -9.4286,-40.1079 -29.6445,-50.0488 -16.4249,-8.0769 -37.1413,-12.0564 -58.041,-12.3144 v 0 c -1.2052,-0.015 -2.4115,-0.017 -3.6171,-0.01 z m -137.125,40.6523 c -0.076,0.1682 -0.1122,0.238 -0.1954,0.4238 -0.7487,1.7164 -1.7574,4.1884 -2.9707,7.2754 -2.4264,6.1739 -5.6787,14.8242 -9.4589,25.0957 -7.561,20.5431 -17.2319,47.5955 -26.7129,74.5899 -9.4811,26.9947 -18.7726,53.9302 -25.5567,74.2304 -3.392,10.1503 -6.155,18.6498 -8,24.6368 -0.8915,2.8928 -1.546,5.1339 -1.9648,6.7207 1.4402,0.3556 3.4107,0.8011 5.998,1.3437 5.4431,1.1415 13.2221,2.6474 22.7246,4.4121 19.0048,3.5294 44.9361,8.0883 73.1797,12.8067 48.0125,8.0209 75.6086,12.5756 92.5,14.996 2.976,-5.7882 7.2733,-10.673 12.5801,-14.4316 -14.8796,-27.2654 -44.9442,-80.9409 -72.8848,-130.2812 -14.2106,-25.0954 -27.7444,-48.8576 -38.1933,-67.002 -5.2245,-9.0721 -9.6839,-16.7364 -13.0606,-22.4629 -3.3766,-5.7265 -5.7832,-9.6522 -6.5058,-10.6797 -0.5057,-0.7193 -1.0061,-1.2077 -1.4785,-1.6738 z m 320.3789,4.3906 c 3.8725,17.9455 -1.4712,34.3225 -12.2969,49.6074 -11.4524,16.1692 -28.5979,31.5747 -47.0606,48.1973 -36.3552,32.7327 -77.5658,70.082 -91.3535,124.4961 14.2394,5.1814 19.3811,14.2906 22.3692,21.8789 26.0322,-2.7318 76.9772,-8.951 122.6914,-14.8652 23.2388,-3.0065 44.9361,-5.9099 60.9277,-8.1719 7.996,-1.1309 14.5661,-2.0949 19.1699,-2.8379 1.9178,-0.3095 3.2712,-0.5602 4.4492,-0.7812 -0.424,-1.6013 -1.0593,-3.7913 -1.957,-6.6641 -1.8962,-6.0706 -4.7614,-14.6836 -8.2832,-24.9746 -7.045,-20.5822 -16.7245,-47.9031 -26.6465,-75.3223 -9.9224,-27.419 -20.0857,-54.9478 -28.0937,-75.9609 -4.0037,-10.5065 -7.4722,-19.3818 -10.0899,-25.7832 -1.3088,-3.2006 -2.4126,-5.7866 -3.2441,-7.6133 -0.2343,-0.5176 -0.3931,-0.8171 -0.582,-1.2051 z m -361.8516,234.1289 c 8.8777,5.5895 18.1086,11.1838 25.3672,15.5899 18.2011,11.0456 42.9526,25.915 69.8515,41.9258 26.8978,16.0099 51.6664,30.5956 69.8965,41.1914 9.1151,5.2978 16.5959,9.5955 21.8789,12.5722 2.2844,1.2872 3.9467,2.2017 5.3516,2.961 0.038,-0.3122 0.079,-0.3987 0.1133,-0.7539 0.291,-3.0014 0.4546,-7.471 0.498,-12.7481 0.079,-9.9078 -0.3318,-22.7564 -0.9668,-34.7246 -20.3618,-2.4912 -36.0851,-19.587 -35.7226,-40.4277 v -0.025 -0.02 c 0,-0.1266 0.039,-0.2575 0.039,-0.3847 -25.3322,-4.7543 -60.5626,-10.8773 -91.8144,-15.9473 -16.0978,-2.6116 -31.0095,-4.9335 -42.6875,-6.6094 z m 407.8672,7.4395 c -2.2246,0 -11.0413,0.7201 -23.5156,2.0195 -12.7832,1.3317 -29.3877,3.202 -47.2754,5.3027 -34.8182,4.089 -73.8873,8.9949 -99.8711,12.5528 -0.4214,17.0909 -11.6908,31.7014 -27.7383,37.082 0.042,3.8811 0.094,7.8314 0.207,11.9981 0.3288,12.5113 0.7579,23.8851 1.1778,32.1093 0.1889,3.7213 0.38,6.5518 0.5546,8.7715 1.4487,-0.7492 3.0012,-1.5545 5.2266,-2.7441 5.6205,-3.0046 13.5342,-7.3072 22.9785,-12.4942 18.8886,-10.3739 43.8892,-24.2573 68.9297,-38.2519 25.0401,-13.9946 50.1257,-28.1095 69.1836,-38.9434 9.529,-5.4168 17.5572,-10.0116 23.3066,-13.3613 2.8748,-1.6748 5.1812,-3.0371 6.8086,-4.0254 z"
         id="path1268"
         inkscape:connector-curvature="0" />
    </clipPath>
  </defs>
  <sodipodi:namedview
     id="base"
     pagecolor="#ffffff"
     bordercolor="#666666"
     borderopacity="1.0"
     inkscape:pageopacity="0.0"
     inkscape:pageshadow="2"
     inkscape:zoom="0.24748737"
     inkscape:cx="1156.973"
     inkscape:cy="-26.623513"
     inkscape:document-units="mm"
     inkscape:current-layer="layer1"
     showgrid="false"
     inkscape:window-width="1920"
     inkscape:window-height="1029"
     inkscape:window-x="0"
     inkscape:window-y="25"
     inkscape:window-maximized="1"
     inkscape:snap-global="false" />
  <metadata
     id="metadata5">
    <rdf:RDF>
      <cc:Work
         rdf:about="">
        <dc:format>image/svg+xml</dc:format>
        <dc:type
           rdf:resource="http://purl.org/dc/dcmitype/StillImage" />
        <dc:title></dc:title>
      </cc:Work>
    </rdf:RDF>
  </metadata>
  <g
     inkscape:label="Layer 1"
     inkscape:groupmode="layer"
     id="layer1"
     transform="translate(-36.105021,-72.050118)">
    <g
       id="g4940"
       transform="translate(-846.33669,-382.62252)">
      <rect
         inkscape:export-ydpi="96"
         inkscape:export-xdpi="96"
         inkscape:export-filename="D:\Projects\andres-ml\poll20\img\logo-2.png"
         style="fill:#f2f2f2;fill-opacity:0;stroke:none;stroke-width:1.08718264;stroke-linejoin:round;stroke-miterlimit:4;stroke-dasharray:none;stroke-opacity:1"
         id="rect1069"
         width="150"
         height="150"
         x="882.44171"
         y="454.67264" />
      <path
         inkscape:export-ydpi="96"
         inkscape:export-xdpi="96"
         inkscape:export-filename="D:\Projects\andres-ml\poll20\img\logo-2.png"
         inkscape:connector-curvature="0"
         id="path1095"
         d="m 958.28369,456.23065 c -0.19131,0.18936 -0.39615,0.39157 -0.69178,0.70164 -0.75488,0.79176 -1.82065,1.94831 -3.11464,3.37333 -2.58795,2.84997 -6.08879,6.77952 -9.88365,11.08028 -6.53707,7.40853 -13.26782,15.19537 -18.38638,21.1956 16.67249,-8.52765 42.27667,-7.52513 62.48371,1.86338 -4.67775,-6.19726 -11.29016,-14.74277 -17.59062,-22.65617 -3.51552,-4.41551 -6.77298,-8.45021 -9.20175,-11.37582 -1.21439,-1.46279 -2.22371,-2.64999 -2.94547,-3.46085 -0.28494,-0.32012 -0.48367,-0.5291 -0.66942,-0.72139 z"
         style="fill:#e6a4d4;fill-opacity:1;stroke:#323232;stroke-width:1.32291663;stroke-miterlimit:4;stroke-dasharray:none;stroke-opacity:1" />
      <path
         inkscape:export-ydpi="96"
         inkscape:export-xdpi="96"
         inkscape:export-filename="D:\Projects\andres-ml\poll20\img\logo-2.png"
         inkscape:connector-curvature="0"
         id="path1093"
         d="m 970.30193,463.18396 c 0.12495,0.16739 0.19577,0.26886 0.34558,0.46731 0.80303,1.06416 1.95356,2.56353 3.36342,4.38367 2.81973,3.64027 6.67826,8.5663 10.89401,13.89874 4.21317,5.32921 8.14623,10.17754 11.08027,13.68741 1.46703,1.75494 2.68416,3.17585 3.55761,4.14936 0.43675,0.48676 0.78828,0.8637 1.02948,1.1025 0.046,0.0456 0.062,0.0573 0.099,0.092 0.1241,-0.0362 0.2683,-0.0788 0.4608,-0.14477 0.4621,-0.15833 1.094,-0.39434 1.8383,-0.68849 1.4888,-0.58831 3.4316,-1.40959 5.4579,-2.31164 4.0784,-1.81561 8.137,-3.56874 9.2294,-3.97492 0.5712,-0.21244 0.6358,-0.30118 0.6516,-0.26131 -0.048,-0.074 -0.063,-0.11286 -0.1613,-0.2363 0.083,0.10319 0,0.0103 -0.099,-0.0723 -0.1045,-0.0827 -0.2607,-0.20109 -0.4582,-0.34293 -0.3946,-0.28366 -0.9541,-0.66994 -1.6513,-1.13938 -1.3946,-0.93886 -3.3396,-2.21174 -5.6449,-3.70175 -4.6105,-2.97997 -10.67273,-6.82806 -16.73491,-10.63532 -6.06213,-3.80725 -12.12433,-7.57299 -16.73757,-10.38588 -2.3066,-1.40645 -4.25095,-2.5748 -5.64674,-3.38846 -0.36925,-0.21525 -0.58532,-0.33461 -0.87346,-0.49758 z"
         style="fill:#e2dea0;fill-opacity:1;stroke:#323232;stroke-width:1.32291663;stroke-miterlimit:4;stroke-dasharray:none;stroke-opacity:1" />
      <path
         inkscape:export-ydpi="96"
         inkscape:export-xdpi="96"
         inkscape:export-filename="D:\Projects\andres-ml\poll20\img\logo-2.png"
         inkscape:connector-curvature="0"
         id="path1091"
         d="m 943.67607,465.25598 c -1.19687,0.69877 -2.62342,1.54249 -4.46791,2.65983 -4.23195,2.56355 -9.86588,6.03997 -15.55082,9.58745 -5.68494,3.5475 -11.42112,7.16641 -15.85951,10.01333 -2.21923,1.42347 -4.11413,2.65427 -5.51251,3.5846 -0.69919,0.46516 -1.27567,0.85568 -1.70147,1.1545 -0.40909,0.28706 -0.67892,0.499 -0.73126,0.54433 0.0149,0.005 -0.0103,9e-5 0.24089,0.19155 0.70474,0.53691 2.42099,1.46232 5.42827,2.95534 1.91154,0.94904 3.78615,1.81834 5.25181,2.45052 0.73285,0.31607 1.36381,0.57425 1.83838,0.74906 0.37724,0.13887 0.54942,0.1716 0.60687,0.19414 0.0433,-0.0317 0.0648,-0.0463 0.12445,-0.0947 0.24018,-0.19477 0.59376,-0.51156 1.02748,-0.92809 0.86745,-0.83311 2.06725,-2.0636 3.50497,-3.59446 2.8754,-3.06178 6.70864,-7.32981 10.83936,-12.09789 8.79283,-10.14954 12.9695,-14.96056 14.96105,-17.36946 z"
         style="fill:#98d78d;fill-opacity:1;stroke:#323232;stroke-width:1.32291663;stroke-miterlimit:4;stroke-dasharray:none;stroke-opacity:1" />
      <path
         inkscape:export-ydpi="96"
         inkscape:export-xdpi="96"
         inkscape:export-filename="D:\Projects\andres-ml\poll20\img\logo-2.png"
         inkscape:connector-curvature="0"
         id="path1089"
         d="m 896.89919,497.19622 c -0.12164,1.27535 -0.35338,5.07647 -0.63187,10.33384 -0.28753,5.42821 -0.61972,12.22289 -0.93007,18.88664 -0.3103,6.66375 -0.59972,13.19753 -0.79377,18.11059 -0.0969,2.45655 -0.16952,4.50946 -0.21129,5.96535 -0.002,0.10381 -0.002,0.14649 -0.005,0.24419 0.13334,-0.29315 0.12329,-0.20344 0.27907,-0.58251 1.34083,-3.26396 3.77686,-9.9429 8.34874,-22.57062 4.93857,-13.64077 7.34965,-19.80985 7.35349,-22.58379 10e-4,-1.38696 -0.35928,-1.87403 -1.45006,-2.56964 -1.09076,-0.69561 -2.94505,-1.3877 -5.43612,-2.55977 -2.11934,-0.99715 -3.67204,-1.70099 -4.77859,-2.14444 -0.97927,-0.39245 -1.49282,-0.49699 -1.74426,-0.52984 z"
         style="fill:#e98c8c;fill-opacity:1;stroke:#323232;stroke-width:1.32291663;stroke-miterlimit:4;stroke-dasharray:none;stroke-opacity:1" />
      <path
         inkscape:export-ydpi="96"
         inkscape:export-xdpi="96"
         inkscape:export-filename="D:\Projects\andres-ml\poll20\img\logo-2.png"
         inkscape:connector-curvature="0"
         id="path1087"
         d="m 1021.1156,497.74054 c -0.1314,0.033 -0.2397,0.055 -0.4075,0.10469 -0.5772,0.171 -1.3469,0.43555 -2.2319,0.76354 -1.7699,0.65595 -4.0092,1.56876 -6.2239,2.52753 -2.2149,0.95874 -4.4086,1.96546 -6.0899,2.8066 -0.8407,0.42054 -1.5527,0.80082 -2.0648,1.10444 -0.2404,0.14256 -0.4259,0.26591 -0.5621,0.36337 0,0.009 8e-4,0.007 0,0.017 0.061,0.27749 0.1716,0.70376 0.3265,1.24138 0.3099,1.07524 0.7937,2.60624 1.4053,4.4679 1.2231,3.72338 2.9626,8.77175 4.8958,14.22719 3.8419,10.84191 8.4306,23.24444 11.252,30.1341 0.021,-0.36609 0.043,-0.66171 0.063,-1.15713 0.062,-1.66843 0.1108,-4.02419 0.1449,-6.83351 0.069,-5.61868 0.083,-13.0536 0.05,-20.48872 -0.033,-7.43512 -0.1121,-14.87338 -0.231,-20.49923 -0.06,-2.81293 -0.1292,-5.1721 -0.2066,-6.84604 -0.038,-0.8263 -0.079,-1.48045 -0.1197,-1.93314 z"
         style="fill:#98d78d;fill-opacity:1;stroke:#323232;stroke-width:1.32291663;stroke-miterlimit:4;stroke-dasharray:none;stroke-opacity:1" />
      <path
         inkscape:export-ydpi="96"
         inkscape:export-xdpi="96"
         inkscape:export-filename="D:\Projects\andres-ml\poll20\img\logo-2.png"
         sodipodi:nodetypes="cccscccccscccc"
         inkscape:connector-curvature="0"
         id="path1085"
         d="m 951.92937,498.14205 c -1.27617,-0.0158 -2.55496,0.0206 -3.82289,0.10865 -6.76219,0.46894 -13.21448,2.40529 -17.31941,5.41111 -2.05248,1.50294 -3.64685,3.20963 -4.20663,5.19919 -0.73849,2.62474 0.7533,9.93252 1.57256,12.66712 1.14439,3.78248 3.54284,9.73987 8.65676,18.72999 5.12355,9.00702 9.60406,15.8643 12.79427,20.39986 1.5951,2.26775 2.86957,3.95445 3.73466,5.03461 0.0115,0.0138 0.0129,0.0165 0.0243,0.0303 0.28311,-14.50584 6.11053,-21.61501 11.87672,-27.52165 6.05282,-6.20027 9.71745,-12.97465 9.89033,-23.55909 -0.24645,-6.12661 -2.49451,-10.61177 -7.84332,-13.24197 -4.34588,-2.13707 -9.82736,-3.18993 -15.35731,-3.25814 z"
         style="fill:#ffa271;fill-opacity:1;stroke:#323232;stroke-width:1.32291663;stroke-miterlimit:4;stroke-dasharray:none;stroke-opacity:1" />
      <path
         inkscape:export-ydpi="96"
         inkscape:export-xdpi="96"
         inkscape:export-filename="D:\Projects\andres-ml\poll20\img\logo-2.png"
         inkscape:connector-curvature="0"
         id="path1083"
         d="m 914.69122,508.89584 c -0.0199,0.0445 -0.0304,0.0628 -0.052,0.11196 -0.19813,0.45414 -0.4649,1.1085 -0.78589,1.92526 -0.642,1.63351 -1.50227,3.92233 -2.50253,6.63999 -2.00048,5.43535 -4.5593,12.59277 -7.06782,19.73504 -2.50854,7.14234 -4.96683,14.26916 -6.76178,19.64028 -0.89748,2.68558 -1.62864,4.93419 -2.11678,6.51823 -0.23587,0.7654 -0.40919,1.35866 -0.52,1.7785 0.38105,0.0941 0.90239,0.21187 1.58694,0.35544 1.44015,0.30202 3.49853,0.70008 6.01274,1.167 5.02835,0.93381 11.88905,2.14004 19.36184,3.38843 12.70328,2.1222 20.00495,3.3273 24.47414,3.9677 0.78739,-1.53148 1.92439,-2.82381 3.32857,-3.81827 -3.93696,-7.21398 -11.8916,-21.41572 -19.28419,-34.47034 -3.75994,-6.63981 -7.34086,-12.92686 -10.10547,-17.72756 -1.38231,-2.40033 -2.56215,-4.42781 -3.45558,-5.94294 -0.89343,-1.51513 -1.52999,-2.55384 -1.72121,-2.8257 -0.13383,-0.1903 -0.26602,-0.31968 -0.39099,-0.44299 z"
         style="fill:#80afe1;fill-opacity:1;stroke:#323232;stroke-width:1.32291663;stroke-miterlimit:4;stroke-dasharray:none;stroke-opacity:1" />
      <path
         inkscape:export-ydpi="96"
         inkscape:export-xdpi="96"
         inkscape:export-filename="D:\Projects\andres-ml\poll20\img\logo-2.png"
         inkscape:connector-curvature="0"
         id="path1081"
         d="m 999.45792,510.05758 c 1.02458,4.74807 -0.38917,9.08118 -3.25353,13.12534 -3.03005,4.27809 -7.56651,8.35406 -12.45133,12.75211 -9.61907,8.66053 -20.52272,18.54232 -24.1707,32.93939 3.76742,1.37092 5.12793,3.78117 5.9186,5.78891 6.88769,-0.72279 20.36697,-2.36797 32.46215,-3.93278 6.14859,-0.79545 11.88909,-1.56372 16.12019,-2.1622 2.1156,-0.29923 3.854,-0.55444 5.0721,-0.75102 0.5074,-0.0819 0.8653,-0.1482 1.177,-0.20668 -0.1122,-0.42367 -0.2799,-1.00322 -0.5174,-1.76332 -0.5017,-1.60617 -1.26,-3.88491 -2.1918,-6.60775 -1.864,-5.44572 -4.4249,-12.6746 -7.0501,-19.92926 -2.6253,-7.25462 -5.3144,-14.53799 -7.4332,-20.09772 -1.0593,-2.77984 -1.9771,-5.12798 -2.6697,-6.82168 -0.3463,-0.84682 -0.63824,-1.53147 -0.85828,-2.01477 -0.0624,-0.13696 -0.10405,-0.21592 -0.154,-0.31857 z"
         style="fill:#e98c8c;fill-opacity:1;stroke:#323232;stroke-width:1.32291663;stroke-miterlimit:4;stroke-dasharray:none;stroke-opacity:1" />
      <path
         sodipodi:nodetypes="cccccccccccccccc"
         inkscape:export-ydpi="96"
         inkscape:export-xdpi="96"
         inkscape:export-filename="D:\Projects\andres-ml\poll20\img\logo-2.png"
         inkscape:connector-curvature="0"
         id="path1077"
         d="m 903.71825,572.00418 c 2.34889,1.47887 4.79126,2.95925 6.71174,4.12502 4.8157,2.92249 11.36416,6.85659 18.48114,11.09278 7.11667,4.23596 13.67026,8.09514 18.4937,10.8986 2.41173,1.40173 4.39118,2.53836 5.78894,3.32595 0.60444,0.34057 1.04416,0.58301 1.41581,0.78389 0.0103,-0.0826 0.0206,-0.10546 0.0297,-0.19944 0.0768,-0.7941 0.12011,-1.97705 0.13164,-3.37329 0.0211,-2.62144 -0.0881,-6.02071 -0.25604,-9.1873 -5.38733,-0.65913 -9.54715,-5.18243 -9.45124,-10.69653 v -0.007 -0.005 c 0.001,-0.0335 0.006,-0.0684 0.007,-0.10205 -6.70255,-1.2579 -16.02384,-2.87767 -24.2925,-4.21911 -4.25921,-0.69099 -8.2044,-1.30545 -11.2942,-1.74886 z"
         style="fill:#e6a4d4;fill-opacity:1;stroke:#323232;stroke-width:1.32291663;stroke-miterlimit:4;stroke-dasharray:none;stroke-opacity:1" />
      <path
         inkscape:export-ydpi="96"
         inkscape:export-xdpi="96"
         inkscape:export-filename="D:\Projects\andres-ml\poll20\img\logo-2.png"
         inkscape:connector-curvature="0"
         id="path1073"
         d="m 1011.6328,573.97225 c -0.5886,8.8e-4 -2.9215,0.19065 -6.222,0.53446 -3.3822,0.35233 -7.77519,0.84749 -12.50798,1.40331 -9.21228,1.08188 -19.5495,2.37994 -26.42441,3.32129 -0.11146,4.52196 -3.09305,8.38763 -7.33904,9.81126 0.0114,1.02688 0.0255,2.07209 0.0547,3.17453 0.0874,3.31028 0.20028,6.31951 0.31132,8.49551 0.0502,0.98458 0.10061,1.73351 0.1468,2.32082 0.3833,-0.19822 0.79412,-0.41124 1.3829,-0.726 1.48708,-0.79496 3.58105,-1.93378 6.07985,-3.30617 4.99762,-2.74478 11.61241,-6.41787 18.23764,-10.12062 6.62527,-3.70274 13.26234,-7.43713 18.30472,-10.30359 2.5212,-1.4332 4.6455,-2.64893 6.1667,-3.53521 0.7606,-0.44313 1.3709,-0.80353 1.8015,-1.06501 z"
         style="fill:#e2dea0;fill-opacity:1;stroke:#323232;stroke-width:1.32291663;stroke-miterlimit:4;stroke-dasharray:none;stroke-opacity:1" />
    </g>
  </g>
</svg>
